# xmcd
#
# Track frame offsets: 
#        150
#        12485
#        24230
#        40297
#        53668
#        64457
#        82845
#        96234
#        107158
#        120151
#        129361
#        140742
#
# Disc length: 2066 seconds
#
# Revision: 2
# Processed by: cddbd v1.5.2PL0 Copyright (c) Steve Scherf et al.
# Submitted via: ExactAudioCopyFreeDBPlugin 1.0
#
DISCID=9908100c
DTITLE=Johnny Cash - The Cash Collection [CD2)
DYEAR=2011
DGENRE=Country
TTITLE0=Ring of fire
TTITLE1=I'm an easy rider
TTITLE2=The greatest cowboy of them all
TTITLE3=Don't take your guns to town
TTITLE4=Angel and the badman
TTITLE5=A croft in clachan
TTITLE6=I still miss someone
TTITLE7=Cry, cry, cry
TTITLE8=Wanted man
TTITLE9=I got stripes
TTITLE10=Get rhythm
TTITLE11=Monteagle Mountain
EXTD=
EXTT0=
EXTT1=
EXTT2=
EXTT3=
EXTT4=
EXTT5=
EXTT6=
EXTT7=
EXTT8=
EXTT9=
EXTT10=
EXTT11=
PLAYORDER=
